<svg width="32" height="32" viewBox="0 0 32 32" fill="none" xmlns="http://www.w3.org/2000/svg">
<path d="M13.8559 17.0689C13.9633 17.0689 14.0664 17.0262 14.1423 16.9502C14.2183 16.8743 14.2609 16.7713 14.2609 16.6639V16.0782H16.5734C16.6754 16.7337 17.0209 17.3266 17.541 17.7384C18.0611 18.1502 18.7174 18.3506 19.3789 18.2995C20.0403 18.2484 20.658 17.9495 21.1087 17.4627C21.5593 16.9759 21.8097 16.3369 21.8097 15.6735C21.8097 15.0102 21.5593 14.3712 21.1087 13.8844C20.658 13.3976 20.0403 13.0987 19.3789 13.0476C18.7174 12.9965 18.0611 13.1969 17.541 13.6087C17.0209 14.0205 16.6754 14.6134 16.5734 15.2689H11.7253C11.6179 15.2689 11.5149 15.3115 11.4389 15.3875C11.363 15.4634 11.3203 15.5664 11.3203 15.6739V17.0707C11.3203 17.1785 11.3631 17.2818 11.4393 17.358C11.5155 17.4342 11.6188 17.477 11.7266 17.477C11.8343 17.477 11.9376 17.4342 12.0138 17.358C12.09 17.2818 12.1328 17.1785 12.1328 17.0707V16.0782H13.4547V16.6639C13.4545 16.7707 13.4966 16.8732 13.5718 16.9491C13.647 17.025 13.7491 17.068 13.8559 17.0689ZM19.1653 13.8495C19.5261 13.8495 19.8789 13.9565 20.1789 14.1569C20.4789 14.3574 20.7127 14.6423 20.8508 14.9757C20.9889 15.3091 21.025 15.6759 20.9546 16.0298C20.8842 16.3837 20.7105 16.7087 20.4553 16.9639C20.2002 17.219 19.8751 17.3928 19.5212 17.4632C19.1673 17.5336 18.8005 17.4974 18.4672 17.3594C18.1338 17.2213 17.8489 16.9874 17.6484 16.6874C17.4479 16.3874 17.3409 16.0347 17.3409 15.6739C17.3414 15.1902 17.5338 14.7264 17.8758 14.3844C18.2179 14.0424 18.6816 13.85 19.1653 13.8495Z" fill="#BE1300"/>
<path d="M27.7605 25.4374H24.7118C24.6768 25.4373 24.6419 25.4419 24.608 25.4512L16.888 27.4924C16.2622 27.6892 15.5969 27.7252 14.9534 27.5972C14.3099 27.4692 13.7091 27.1813 13.2062 26.76L4.85242 20.2412C5.1859 19.9643 5.58742 19.7818 6.01529 19.7125C6.44316 19.6433 6.88176 19.6899 7.28555 19.8474L12.2068 22.1162C11.9761 22.3323 11.768 22.5712 11.5855 22.8293C11.4332 23.0474 11.3464 23.3044 11.3353 23.5702C11.3242 23.836 11.3894 24.0994 11.523 24.3293C11.6573 24.574 11.8592 24.7749 12.1046 24.9079C12.35 25.0409 12.6285 25.1004 12.9068 25.0793L19.858 24.5856C19.965 24.5779 20.0645 24.5281 20.1348 24.4472C20.2051 24.3662 20.2404 24.2607 20.233 24.1537C20.2232 24.0475 20.1727 23.9492 20.0921 23.8793C20.0115 23.8095 19.9071 23.7734 19.8005 23.7787L12.8493 24.2724C12.7236 24.2811 12.5981 24.2537 12.4875 24.1936C12.3768 24.1335 12.2855 24.0432 12.2243 23.9331C12.1658 23.8364 12.1367 23.7248 12.1404 23.6118C12.1442 23.4988 12.1807 23.3894 12.2455 23.2968C12.501 22.9436 12.8092 22.6316 13.1593 22.3718C14.793 21.6125 19.2174 19.6793 20.608 19.6062C22.2562 19.5081 24.608 20.9412 24.633 20.9556C24.6964 20.9939 24.769 21.0142 24.843 21.0143H27.7568C27.8645 21.0143 27.9679 20.9715 28.0441 20.8953C28.1202 20.8192 28.163 20.7158 28.163 20.6081C28.163 20.5003 28.1202 20.397 28.0441 20.3208C27.9679 20.2446 27.8645 20.2018 27.7568 20.2018H24.9574C24.4612 19.9137 22.2812 18.7093 20.5693 18.7943C18.8755 18.8824 13.9318 21.125 12.9574 21.5712L7.6043 19.1037C6.9738 18.8535 6.2808 18.8068 5.62244 18.9702C4.96408 19.1336 4.37335 19.4989 3.93304 20.0149C3.89751 20.0565 3.87076 20.1048 3.85442 20.157C3.83808 20.2091 3.83249 20.2641 3.83798 20.3185C3.84347 20.3728 3.85994 20.4255 3.88637 20.4734C3.91281 20.5212 3.94867 20.5632 3.99179 20.5968L12.6993 27.3906C13.3023 27.8952 14.0224 28.2402 14.7936 28.3938C15.5647 28.5475 16.3621 28.5049 17.1124 28.2699L24.7649 26.2456H27.7605C27.8651 26.2415 27.9641 26.197 28.0366 26.1216C28.1091 26.0461 28.1496 25.9455 28.1496 25.8409C28.1496 25.7362 28.1091 25.6356 28.0366 25.5602C27.9641 25.4847 27.8651 25.4403 27.7605 25.4362V25.4374Z" fill="#BE1300"/>
<path d="M18.8381 9.63199C17.2043 10.392 12.78 12.3251 11.39 12.3976C9.74559 12.5001 7.38997 11.0626 7.36434 11.0482C7.30101 11.0099 7.22839 10.9896 7.15434 10.9895H4.24122C4.18674 10.9874 4.13238 10.9962 4.08142 11.0156C4.03045 11.035 3.98392 11.0644 3.94461 11.1022C3.90531 11.14 3.87404 11.1854 3.85268 11.2355C3.83132 11.2857 3.82031 11.3397 3.82031 11.3942C3.82031 11.4487 3.83132 11.5027 3.85268 11.5528C3.87404 11.603 3.90531 11.6483 3.94461 11.6861C3.98392 11.7239 4.03045 11.7534 4.08142 11.7728C4.13238 11.7921 4.18674 11.801 4.24122 11.7989H7.04372C7.52247 12.0764 9.57935 13.2107 11.25 13.2107C11.3125 13.2107 11.375 13.2107 11.4331 13.2064C13.1256 13.117 18.0693 10.8751 19.0437 10.4282L24.3968 12.8951C25.0274 13.1455 25.7206 13.1923 26.379 13.0288C27.0375 12.8654 27.6284 12.5 28.0687 11.9839C28.1039 11.9422 28.1303 11.8939 28.1464 11.8418C28.1624 11.7897 28.1679 11.7349 28.1623 11.6806C28.1568 11.6264 28.1404 11.5738 28.1141 11.5261C28.0878 11.4783 28.0522 11.4363 28.0093 11.4026L19.3018 4.60949C18.6986 4.10532 17.9785 3.76058 17.2075 3.60683C16.4365 3.45309 15.6392 3.49526 14.8887 3.72949L7.23684 5.75387H4.24122C4.13348 5.75387 4.03014 5.79667 3.95396 5.87286C3.87777 5.94904 3.83497 6.05237 3.83497 6.16012C3.83497 6.26786 3.87777 6.37119 3.95396 6.44738C4.03014 6.52357 4.13348 6.56637 4.24122 6.56637H7.28935C7.32439 6.5665 7.35929 6.56187 7.39309 6.55262L15.1131 4.50699C15.7389 4.30994 16.4043 4.27376 17.0478 4.40178C17.6913 4.52981 18.2922 4.81791 18.795 5.23949L27.1487 11.7582C26.8152 12.035 26.4136 12.2174 25.9858 12.2866C25.5579 12.3557 25.1193 12.309 24.7156 12.1514L19.7943 9.88324C20.0249 9.66724 20.233 9.42853 20.4156 9.17074C20.5678 8.95263 20.6545 8.69559 20.6656 8.42986C20.6767 8.16413 20.6116 7.90076 20.4781 7.67074C20.3425 7.4274 20.1403 7.22783 19.8951 7.09552C19.65 6.9632 19.3722 6.90365 19.0943 6.92387L12.1431 7.41699C12.0362 7.42468 11.9366 7.47446 11.8663 7.55542C11.796 7.63638 11.7607 7.74191 11.7681 7.84887C11.7772 7.95526 11.8274 8.05392 11.908 8.12393C11.9886 8.19393 12.0934 8.22978 12.2 8.22387L19.1512 7.73012C19.2768 7.72268 19.4019 7.7506 19.5124 7.8107C19.6228 7.8708 19.7143 7.96067 19.7762 8.07012C19.8347 8.16682 19.8639 8.27844 19.8601 8.3914C19.8563 8.50436 19.8198 8.61378 19.755 8.70637C19.4985 9.05998 19.1893 9.37215 18.8381 9.63199Z" fill="#BE1300"/>
</svg>
