<svg width="46" height="38" viewBox="0 0 46 38" fill="none" xmlns="http://www.w3.org/2000/svg">
<path d="M45.1836 9.41402C45.125 9.41402 43.8311 9.34468 42.2031 9.39937V7.83687C42.2031 7.7297 42.1689 7.62534 42.1055 7.53893C42.0421 7.45253 41.9528 7.38859 41.8506 7.3564C41.5576 7.26558 34.9756 5.22749 28.9463 6.6855C28.9947 6.25997 28.9983 5.83053 28.957 5.40425C28.7982 3.87978 28.0605 2.47437 26.896 1.47777C25.7315 0.48118 24.229 -0.0306168 22.6983 0.0479036C21.1676 0.126424 19.7254 0.789276 18.669 1.89979C17.6126 3.01031 17.0225 4.48383 17.0205 6.01656C17.0212 6.24073 17.0343 6.4647 17.0596 6.68745C11.0264 5.22945 4.4375 7.26753 4.15234 7.35835C4.05013 7.39054 3.96083 7.45448 3.89744 7.54089C3.83404 7.62729 3.79984 7.73165 3.7998 7.83882V9.41499C2.02344 9.48238 0.619141 10.4668 0.555664 10.5117C0.490388 10.5584 0.437138 10.6199 0.400296 10.6912C0.363453 10.7625 0.344073 10.8416 0.34375 10.9218V35.7402C0.343751 35.8237 0.364546 35.9059 0.404257 35.9794C0.443969 36.0528 0.501348 36.1152 0.571216 36.161C0.641084 36.2067 0.721241 36.2343 0.804454 36.2413C0.887666 36.2483 0.971315 36.2345 1.04785 36.2011C1.18945 36.1386 15.3174 30.0976 20.9414 37.7001C20.9882 37.7632 21.0492 37.8145 21.1194 37.8497C21.1896 37.885 21.2671 37.9034 21.3457 37.9033H24.666C24.7446 37.9034 24.8221 37.885 24.8923 37.8497C24.9625 37.8145 25.0235 37.7632 25.0703 37.7001C30.6943 30.0976 44.8213 36.1376 44.9639 36.2011C45.0404 36.2345 45.1241 36.2483 45.2073 36.2413C45.2905 36.2343 45.3706 36.2067 45.4405 36.161C45.5104 36.1152 45.5677 36.0528 45.6075 35.9794C45.6472 35.9059 45.668 35.8237 45.668 35.7402V9.91695C45.6678 9.78679 45.6173 9.66174 45.527 9.56799C45.4367 9.47424 45.3137 9.41906 45.1836 9.41402ZM19.6797 2.30464C20.3639 1.69443 21.2032 1.2849 22.1052 1.12116C23.0072 0.957425 23.9369 1.04583 24.7919 1.37664C25.6469 1.70745 26.394 2.26782 26.9509 2.99604C27.5078 3.72426 27.853 4.59207 27.9482 5.50386C28.0066 6.07884 27.9656 6.65956 27.8271 7.22066C27.8201 7.24206 27.8146 7.26392 27.8105 7.28609C27.6228 8.00234 27.2764 8.66719 26.7969 9.2314C25.9833 10.1718 25.529 11.3699 25.5146 12.6132V13.8125H20.4814V12.6962C20.4954 11.4487 20.0577 10.2381 19.249 9.28804C18.7443 8.70961 18.3806 8.022 18.1865 7.27925C18.1865 7.26558 18.1797 7.25093 18.1758 7.23726C17.9511 6.35617 17.9726 5.43033 18.2377 4.56058C18.5029 3.69082 19.0017 2.91052 19.6797 2.30464ZM4.80371 8.21675C6.28516 7.80855 12.1729 6.37593 17.2852 7.78511C17.5314 8.58318 17.9422 9.32073 18.4912 9.95015C19.1399 10.7168 19.4895 11.6921 19.4756 12.6962V14.3154C19.4755 14.3815 19.4884 14.4469 19.5136 14.508C19.5388 14.5691 19.5759 14.6246 19.6226 14.6713C19.6693 14.718 19.7248 14.7551 19.7859 14.7803C19.847 14.8055 19.9124 14.8184 19.9785 14.8183H26.0205C26.0866 14.8184 26.152 14.8055 26.2131 14.7803C26.2742 14.7551 26.3297 14.718 26.3764 14.6713C26.4231 14.6246 26.4602 14.5691 26.4854 14.508C26.5106 14.4469 26.5236 14.3815 26.5234 14.3154V12.6132C26.5373 11.607 26.9071 10.6383 27.5674 9.87886C28.0889 9.26507 28.4802 8.55176 28.7178 7.78218C33.8301 6.37495 39.7129 7.80659 41.1943 8.2148V30.8251C38.6094 30.1298 29.1523 28.0527 23.5029 33.0605V17.1367H25.9541C26.0875 17.1367 26.2154 17.0837 26.3097 16.9894C26.404 16.8951 26.457 16.7671 26.457 16.6337C26.457 16.5004 26.404 16.3724 26.3097 16.2781C26.2154 16.1838 26.0875 16.1308 25.9541 16.1308H20.0469C19.9135 16.1308 19.7856 16.1838 19.6912 16.2781C19.5969 16.3724 19.5439 16.5004 19.5439 16.6337C19.5439 16.7671 19.5969 16.8951 19.6912 16.9894C19.7856 17.0837 19.9135 17.1367 20.0469 17.1367H22.4971V33.0625C16.8516 28.0537 7.3916 30.1328 4.80371 30.8251V8.21675ZM44.6543 34.9921C41.626 33.8144 29.8877 29.8671 24.4082 36.8984H21.5918C16.1133 29.8671 4.37402 33.8164 1.3457 34.9931V11.2011C1.75488 10.9609 2.70312 10.4804 3.79688 10.4199V31.4931C3.7971 31.572 3.81587 31.6498 3.85165 31.7202C3.88744 31.7905 3.93926 31.8515 4.00292 31.8981C4.06658 31.9448 4.14031 31.9758 4.21817 31.9888C4.29603 32.0017 4.37584 31.9962 4.45117 31.9726C4.57422 31.9335 16.8457 28.164 22.626 34.6044C22.6271 34.6065 22.6288 34.6082 22.6309 34.6093L22.6396 34.6181C22.6524 34.6324 22.6665 34.6455 22.6816 34.6572L22.6934 34.6669C22.7299 34.6955 22.7703 34.7185 22.8135 34.7353H22.8203H22.8271C22.8527 34.7453 22.8792 34.7528 22.9062 34.7578H22.917C22.9445 34.762 22.9722 34.7643 23 34.7646C23.0272 34.7648 23.0543 34.7625 23.0811 34.7578H23.0947C23.12 34.7529 23.1448 34.746 23.1689 34.7373L23.1855 34.7314C23.2099 34.7217 23.2334 34.7099 23.2559 34.6962L23.2666 34.6904C23.3068 34.6654 23.3433 34.6348 23.375 34.5996C29.1562 28.1601 41.4258 31.9287 41.5488 31.9677C41.6242 31.9913 41.704 31.9968 41.7818 31.9839C41.8597 31.9709 41.9334 31.9399 41.9971 31.8932C42.0607 31.8466 42.1126 31.7856 42.1483 31.7153C42.1841 31.6449 42.2029 31.5672 42.2031 31.4882V10.4062C43.2256 10.371 44.1309 10.3857 44.6543 10.4013V34.9921Z" fill="#BE1300"/>
</svg>
