<svg width="49" height="50" viewBox="0 0 49 50" fill="none" xmlns="http://www.w3.org/2000/svg">
<g clip-path="url(#clip0_214_826)">
<path d="M41.3438 45.3125H13.7812C13.3751 45.3125 12.9857 45.1479 12.6985 44.8549C12.4113 44.5618 12.25 44.1644 12.25 43.75V25C12.25 24.5856 12.4113 24.1882 12.6985 23.8951C12.9857 23.6021 13.3751 23.4375 13.7812 23.4375C14.1874 23.4375 14.5768 23.6021 14.864 23.8951C15.1512 24.1882 15.3125 24.5856 15.3125 25V42.1875H39.8125V9.375C39.8125 8.9606 39.6512 8.56317 39.364 8.27015C39.0768 7.97712 38.6874 7.8125 38.2812 7.8125H10.7188C10.3126 7.8125 9.92316 7.64788 9.63599 7.35485C9.34883 7.06183 9.1875 6.6644 9.1875 6.25C9.1875 5.8356 9.34883 5.43817 9.63599 5.14515C9.92316 4.85212 10.3126 4.6875 10.7188 4.6875H38.2812C39.4996 4.6875 40.668 5.18136 41.5295 6.06044C42.391 6.93951 42.875 8.1318 42.875 9.375V43.75C42.875 44.1644 42.7137 44.5618 42.4265 44.8549C42.1393 45.1479 41.7499 45.3125 41.3438 45.3125Z" fill="#BE1300"/>
<path d="M13.7812 26.5625H7.65625C7.25014 26.5625 6.86066 26.3979 6.57349 26.1049C6.28633 25.8118 6.125 25.4144 6.125 25V9.375C6.125 8.1318 6.60898 6.93951 7.47048 6.06044C8.33197 5.18136 9.50041 4.6875 10.7188 4.6875C11.9371 4.6875 13.1055 5.18136 13.967 6.06044C14.8285 6.93951 15.3125 8.1318 15.3125 9.375V25C15.3125 25.4144 15.1512 25.8118 14.864 26.1049C14.5768 26.3979 14.1874 26.5625 13.7812 26.5625ZM9.1875 23.4375H12.25V9.375C12.25 8.9606 12.0887 8.56317 11.8015 8.27015C11.5143 7.97712 11.1249 7.8125 10.7188 7.8125C10.3126 7.8125 9.92316 7.97712 9.63599 8.27015C9.34883 8.56317 9.1875 8.9606 9.1875 9.375V23.4375Z" fill="#BE1300"/>
<path d="M29.0938 29.6875H19.9062C19.5001 29.6875 19.1107 29.5229 18.8235 29.2299C18.5363 28.9368 18.375 28.5394 18.375 28.125C18.375 27.7106 18.5363 27.3132 18.8235 27.0201C19.1107 26.7271 19.5001 26.5625 19.9062 26.5625H29.0938C29.4999 26.5625 29.8893 26.7271 30.1765 27.0201C30.4637 27.3132 30.625 27.7106 30.625 28.125C30.625 28.5394 30.4637 28.9368 30.1765 29.2299C29.8893 29.5229 29.4999 29.6875 29.0938 29.6875Z" fill="#BE1300"/>
<path d="M35.2188 35.9375H19.9062C19.5001 35.9375 19.1107 35.7729 18.8235 35.4799C18.5363 35.1868 18.375 34.7894 18.375 34.375C18.375 33.9606 18.5363 33.5632 18.8235 33.2701C19.1107 32.9771 19.5001 32.8125 19.9062 32.8125H35.2188C35.6249 32.8125 36.0143 32.9771 36.3015 33.2701C36.5887 33.5632 36.75 33.9606 36.75 34.375C36.75 34.7894 36.5887 35.1868 36.3015 35.4799C36.0143 35.7729 35.6249 35.9375 35.2188 35.9375Z" fill="#BE1300"/>
<path d="M32.1562 23.4375H19.9062C19.5001 23.4375 19.1107 23.2729 18.8235 22.9799C18.5363 22.6868 18.375 22.2894 18.375 21.875C18.375 21.4606 18.5363 21.0632 18.8235 20.7701C19.1107 20.4771 19.5001 20.3125 19.9062 20.3125H32.1562C32.5624 20.3125 32.9518 20.4771 33.239 20.7701C33.5262 21.0632 33.6875 21.4606 33.6875 21.875C33.6875 22.2894 33.5262 22.6868 33.239 22.9799C32.9518 23.2729 32.5624 23.4375 32.1562 23.4375Z" fill="#BE1300"/>
<path d="M35.2188 12.5H19.9062C19.5001 12.5 19.1107 12.3354 18.8235 12.0424C18.5363 11.7493 18.375 11.3519 18.375 10.9375V6.25C18.375 5.8356 18.5363 5.43817 18.8235 5.14515C19.1107 4.85212 19.5001 4.6875 19.9062 4.6875H35.2188C35.6249 4.6875 36.0143 4.85212 36.3015 5.14515C36.5887 5.43817 36.75 5.8356 36.75 6.25V10.9375C36.75 11.3519 36.5887 11.7493 36.3015 12.0424C36.0143 12.3354 35.6249 12.5 35.2188 12.5ZM21.4375 9.375H33.6875V7.8125H21.4375V9.375Z" fill="#BE1300"/>
</g>
<defs>
<clipPath id="clip0_214_826">
<rect width="49" height="50" fill="white"/>
</clipPath>
</defs>
</svg>
