<svg width="14" height="8" viewBox="0 0 14 8" fill="none" xmlns="http://www.w3.org/2000/svg">
<path d="M12.4989 7.43758C12.4084 7.4381 12.3187 7.42076 12.235 7.38655C12.1512 7.35233 12.075 7.30192 12.0108 7.2382L6.99891 2.21946L1.98703 7.2382C1.85757 7.36766 1.68199 7.44039 1.49891 7.44039C1.31582 7.44039 1.14024 7.36766 1.01078 7.2382C0.881323 7.10875 0.808594 6.93316 0.808594 6.75008C0.808594 6.567 0.881323 6.39141 1.01078 6.26196L6.51078 0.761955C6.57469 0.697517 6.65073 0.646371 6.73451 0.611467C6.81829 0.576564 6.90815 0.558594 6.99891 0.558594C7.08966 0.558594 7.17952 0.576564 7.2633 0.611467C7.34708 0.646371 7.42312 0.697517 7.48703 0.761955L12.987 6.26196C13.0515 6.32587 13.1026 6.40191 13.1375 6.48568C13.1724 6.56946 13.1904 6.65932 13.1904 6.75008C13.1904 6.84084 13.1724 6.9307 13.1375 7.01448C13.1026 7.09825 13.0515 7.17429 12.987 7.2382C12.9228 7.30192 12.8466 7.35233 12.7628 7.38655C12.6791 7.42076 12.5894 7.4381 12.4989 7.43758Z" fill="#12125A"/>
</svg>
